<svg xmlns="http://www.w3.org/2000/svg" viewBox="0 0 1549.93 1549.93"><defs><style>.cls-1,.cls-28{fill:#fab335;}.cls-2{fill:#faa181;}.cls-3{fill:#f26e4e;}.cls-4{fill:#0c0c11;}.cls-5{fill:#afa798;}.cls-6{fill:#1f766b;}.cls-7{fill:#2a9d8f;}.cls-8{fill:#c98211;}.cls-9{fill:#f2af08;}.cls-10{fill:#ffc648;}.cls-11{fill:#ffc599;}.cls-12{fill:#ff9a92;}.cls-13{fill:#bf8d00;}.cls-14{fill:#936900;}.cls-15{fill:#7c3505;}.cls-16{fill:#fccaca;}.cls-17,.cls-29{fill:#fff;}.cls-18{fill:#559ac4;}.cls-19{fill:#001826;}.cls-20{fill:#160f13;}.cls-21{fill:#3f2f39;}.cls-22{fill:#c13a36;}.cls-23{fill:#f27f7c;}.cls-24{fill:#e8524a;}.cls-25{fill:#ffad8d;}.cls-26{fill:#ce6c4e;}.cls-27{fill:#34c3b1;}.cls-28,.cls-29{fill-rule:evenodd;}.cls-29,.cls-31{stroke:#fff;}.cls-29,.cls-30,.cls-31{stroke-miterlimit:10;}.cls-29{stroke-width:5px;}.cls-30,.cls-31{fill:none;}.cls-30{stroke:#fab335;stroke-width:79px;}.cls-31{stroke-width:73px;}</style></defs><title>Recurso 2confirmado</title><g id="Capa_2" data-name="Capa 2"><g id="Layer_1" data-name="Layer 1"><circle class="cls-1" cx="774.96" cy="778" r="650.04"/><path class="cls-2" d="M883.58,1322.85l-195.77-22.72C623.31,1339,580.7,1424.83,565,1502.67c15,1.81,30,4.21,44.77,7.19a245.33,245.33,0,0,1,27.17,7,60.94,60.94,0,0,1,14.68-2.47,62.2,62.2,0,0,1,32.7,1.46c.62.1,1.24.18,1.86.27a484.86,484.86,0,0,0,56.09,3.77c21.87.06,41.26,9,57.18,23.32,14.44-.7,28.85-1.72,43.18-3.32,28.9-4.48,57.47-10.82,86-17q9.85-2.14,19.72-4.18C949,1449.46,924.74,1358.32,883.58,1322.85Z"/><path class="cls-2" d="M527.46,970.79c-42,100,143.16,442,277.08,401.8C914,1339.73,991.64,960,885.63,899.46,799.47,850.29,562.37,887.69,527.46,970.79Z"/><path class="cls-2" d="M633.05,796.88c25.42,19.36,38.39,73.59,24.07,96.72-35.8,22-41.83,83.88,53.87,79.89s100-66.36,66.46-82.06c-28.6-13.37-34.12-86.53-21.79-99.69"/><path class="cls-3" d="M739.74,812.16c-8.1,34.45-47.56,39.53-49.32,45.87-5.83,21-21.95,50.37-38.42,45.4,19.43-20.72,6.48-71.28-3-90.41"/><path class="cls-4" d="M948.05,1500.92l-364.23-62.78A402.9,402.9,0,0,0,565,1502.67c15,1.81,30,4.21,44.78,7.19a245.33,245.33,0,0,1,27.17,7,60.94,60.94,0,0,1,14.68-2.47,62.2,62.2,0,0,1,32.7,1.46c.62.1,1.24.18,1.86.27a484.86,484.86,0,0,0,56.09,3.77c21.87.06,41.26,9,57.18,23.32,14.44-.7,28.85-1.72,43.18-3.32,28.9-4.48,57.47-10.82,86-17q9.85-2.14,19.71-4.17Q948.48,1510,948.05,1500.92Z"/><path class="cls-4" d="M547,1500.77l-6.14-4.23c-.59,1.18-1.16,2.38-1.74,3.58C541.78,1500.32,544.41,1500.53,547,1500.77Z"/><path class="cls-5" d="M1153.53,910.62c-25.91,18.78,73.68,122.53,91.92,94.42C1264.46,975.72,1190.12,884.11,1153.53,910.62Z"/><path class="cls-2" d="M877,905.65c27.85-34.6,194.46,120.14,258.5,151,42.89,20.69,21.65,96.77-27.8,105.67s-196.07-85.86-203.9-94.29"/><path class="cls-2" d="M1071.2,1054.44C1062.74,986.18,1192.53,896,1226,827.19c19.64-44.5,123.26-22.12,58.79,47.45C1253.28,981,1168,1156.75,1098.91,1162.37"/><path class="cls-2" d="M1248.15,763.31c20.14-16,53-31.6,70.76-25.42,19.6,6.81,33.88,73.64,24.85,105.45-21.73,30-44.23,44.42-71.11,32.31"/><path class="cls-3" d="M1283.42,757.56c8.82,22.83,6.82,65,0,79.08,22.8,2.45,29,13.19,39.24,18.62,19.27-1.45,16.59-45.44,3.82-71.44S1293,756.32,1283.42,757.56Z"/><path class="cls-2" d="M1228.36,839.31c-7-26.43-2-71.33,9.42-86.56,21.12-28.27,11.82-60.19,24.77-68.14,9.56-5.87,31.94,29.44,15.26,69.22,18.18,23.46,12.33,64.29,5.8,74.71"/><path class="cls-2" d="M1344.86,815.83c32.68,11.79,16.37,40.22-6.82,46.31-18.35,4.81-42.42-11.33-4.42-22.39"/><path class="cls-2" d="M1332.34,785.92c44.16,4.53,32.74,44.83,5.87,59.54-21.26,11.64-56.11-.93-12.41-26.4"/><path class="cls-2" d="M1319.45,757.56c49.39,1.67,39.76,47.29,11,65.67-22.73,14.54-62.38,3.23-15.78-28.36"/><path class="cls-2" d="M1302.09,737.13c49.23-4.38,45.26,42.08,19,63.83-20.77,17.22-58.57,12.15-19.14-26.22,5.46-5.32,9.86-14.48,9.86-14.48"/><path class="cls-6" d="M1044.46,990.63c13.8,10.71,30.6,17.19,30.6,17.19,16.69-38,60.86-74,78.47-97.2-4.27,28.6,70.36,90.7,91.92,94.42-19.24,57.49-92.49,151.77-126.8,163s-92.73-17.47-116.84-32.3"/><path class="cls-7" d="M1152,925.29c-24.58,19.94-72.18,67.44-76.51,98.3s2.78,65.83,2.78,65.83c-13-13.91-19.83-40.07-19.83-40.07-9.84,29.41-19.6,67.89-19.6,67.89,13.93,17.62,50.63,26.91,71.5,20s74.68-60.67,98.32-143.66C1175.78,971.74,1158.54,944.64,1152,925.29Z"/><path class="cls-8" d="M906.32,891.53c41,3.16,103.31,61.94,119.6,75.49s29.2,14.39,32.34,34.32-27.47,134-41.21,144.41c-16.95,12.87-74.58-37.54-91.28-36.15"/><path class="cls-9" d="M918.88,897.66c21.64-1,100.78,72.14,127.9,81.87,16,36.17-13.57,117.61-25.56,134.61-25.9-10.12-81-32.92-98.63-131.83C909.34,908,918.88,897.66,918.88,897.66Z"/><path class="cls-9" d="M1009.65,1100.19c-1.76,10.74-6.48,30-6.48,30,11.47,1.37,25.43-14.66,38.46-65.17"/><path class="cls-10" d="M926.94,908.07c11.92-15.89,89.31,57.12,106.79,65.14-3.74,31.46-16.85,74.87-29.73,76.13C962.09,1030.14,911,929.36,926.94,908.07Z"/><path class="cls-10" d="M1048.86,980.06c11.28,5.44,5.71,72.38-25.34,96.23C1042.09,1030.78,1036.28,974,1048.86,980.06Z"/><path class="cls-11" d="M1234.86,821.54c-15.65,35-76.32,101.71-76.32,101.71,10.85,22.14,40.34,47.06,57.89,55.17,14.61-27.95,47.29-98.48,47.29-98.48C1233.47,852,1234.86,821.54,1234.86,821.54Z"/><path class="cls-11" d="M1263.38,688.63c-6,1.36-3.13,19.82-8.35,37.55s-13.22,25.07-17,37.05-18.07,62.89,9,88.75c36.78,35.08,63.66,12.08,65.42,6s-13.81-13.68-22.21-14.16c-12.06-.68-23,4.78-23,4.78,12-25.14,19.17-70.59-.84-93.89C1280.65,724.67,1274.16,686.19,1263.38,688.63Z"/><path class="cls-11" d="M1286.44,745.07c18.09-8.57,35.93-6.49,45.67,3s.69,33.54-17.1,47.75-28.21,10.21-28.57,3.48,27.68-37.36,33-41.76C1313,758.71,1284.82,756.67,1286.44,745.07Z"/><path class="cls-11" d="M1343,767.91c.17,13.21-16,39.64-43.47,45.38-6.48,5.71,3.28,15,29.21-2.09S1352.39,771.91,1343,767.91Z"/><path class="cls-11" d="M1353.61,799.73c-9,19.81-25.73,30.94-41.81,32.51-6.79,6.71.43,16.86,27.55,3.13S1359.7,799,1353.61,799.73Z"/><path class="cls-11" d="M1356.92,833.28c-5.39,4.87-17.91,19.3-34.26,19C1336.46,862.5,1368.22,844.2,1356.92,833.28Z"/><path class="cls-12" d="M1299.76,792c-5.32-1.16-13.77,7.81-11.28,12.83s17.54,1.38,17.71-2.92S1303.8,792.92,1299.76,792Z"/><path class="cls-12" d="M1311.23,815.83c-5.06-2-16.53,3.88-13.94,8.86,1.9,3.64,17.07,4.28,18,.07S1315.07,817.37,1311.23,815.83Z"/><path class="cls-12" d="M1322.19,835.3c-5.07-2-16.54,3.88-13.94,8.86,1.9,3.64,17.07,4.28,17.94.07S1326,836.84,1322.19,835.3Z"/><path class="cls-12" d="M1328.4,850.78c-3.74-1.79-11.68,3.26-10,7.17,1.26,2.85,10,4.38,12.09,1.84C1332,858,1331.24,852.14,1328.4,850.78Z"/><path class="cls-12" d="M1258.81,687.58c3.81,1.36,4,12.75,2.83,16.92s-6.13,3.77-7.7,1.89C1253.06,699.41,1257.1,688.71,1258.81,687.58Z"/><path class="cls-8" d="M953.74,1304.16c-5.22-84.77-.86-159.58-2.61-193.47-44.81-113.31-16.44-206.14-36.2-217.79-20.95-12.36-82.6-21.43-130.59-17.51,5.12,36-23.68,64.86-81,58.58-52.93-5.79-52.14-40.36-69.87-41.59-16.44-2.9-105.92,30.33-119.89,52.67-14.58,23.34,3.43,127,18.92,229.44,13.19,43.56,25.33,150.41,24.21,164.25-1,12.69-28.51,99.37-34,160.34a585,585,0,0,1,87.09,10.78,245.33,245.33,0,0,1,27.17,7,60.94,60.94,0,0,1,14.68-2.47,62.2,62.2,0,0,1,32.7,1.46c.62.1,1.24.18,1.86.27a484.86,484.86,0,0,0,56.09,3.77c21.87.06,41.26,9,57.18,23.32,14.44-.7,28.85-1.72,43.18-3.32,28.9-4.48,57.47-10.82,86-17q21.52-4.69,43.08-8.79C972.77,1475.08,958.21,1376.78,953.74,1304.16Z"/><path class="cls-9" d="M968.23,1514.67c-1.35-2.55-3.41-4.29-6.29-4.49-2.06,2.43-4.26,4.77-6.57,7Q961.79,1515.91,968.23,1514.67Z"/><path class="cls-9" d="M936,1234.6c-2.62-36.29,1.43-130.6.11-212.88-.77-48.57-20.59-101.88-10.4-118.74-25.78-25.12-91.08-23.06-91.08-23.06C846.49,980.23,635.84,1013.61,598.91,910c-4.33-12.15-73.72,18.09-77.52,38.61-8,44.15,29.84,189.31,43.46,223.6,18.53,46.65,47.45,117.51,78.56,162.72-8.39,10.27-44.11-43.81-60.3-64.68-5.76,41.73-8.61,156.48-32.22,215.6,18.09,6.62,38,15.32,60,24.24a244,244,0,0,1,26.08,6.73,60.94,60.94,0,0,1,14.68-2.47,62.2,62.2,0,0,1,32.7,1.46c.62.1,1.24.18,1.86.27a484.86,484.86,0,0,0,56.09,3.77c21.87.06,41.26,9,57.18,23.32,14.44-.7,28.85-1.72,43.18-3.32,28.9-4.48,57.47-10.82,86-17q7.72-1.68,15.46-3.29c11.45-8.39,16.52-16,17.79-19.61C957.77,1461.49,940.22,1292.33,936,1234.6Z"/><path class="cls-10" d="M911.53,1181.44c3.21-111.21,12.81-232.46,8-277.73-31.11-17.75-77.31-18.56-77.31-18.56C820,991.86,646.49,1003.7,591.68,914c-24.88,0-59.61,27.49-59.61,27.49-.59,63,79.83,273.15,104.45,316.26s47.2,103.8,33.28,114.93c-36.17-1.4-67.49-43-67.49-43,13.18,48.85-7.22,117.42,2.78,147.6,13.94,13.19,35.22,25.43,60.57,35.52a63.53,63.53,0,0,1,18.68,3c.62.1,1.24.18,1.86.27a484.86,484.86,0,0,0,56.09,3.77c20,.06,37.87,7.51,53,19.71,61.76,2,120.13-12.51,147.1-53.91C942.35,1438.4,907,1340.15,911.53,1181.44Z"/><path class="cls-9" d="M641.1,900.64c-4.17-9.11-34.13-1.17-33.84,10,.47,18.91,41.4,80,138.63,62.43,87.39-15.76,85.85-87.77,79.36-95.58s-38.4-11.52-36.71,1,4.63,48.88-53.32,58S650.79,921.78,641.1,900.64Z"/><path class="cls-10" d="M796.49,885c-4.24,62.92-121.3,77.25-157.59,20.51-26.9-2.58-5.85,52.86,64.6,63.82,56.85,8.84,96.68-17.3,106.4-44.06C823.89,886.69,797.54,869.36,796.49,885Z"/><path class="cls-5" d="M401.28,1386.47c16.33,27.51,119-51.38,105.94-82.24S378.22,1347.62,401.28,1386.47Z"/><path class="cls-2" d="M520.28,963.51c-26.84-4.68-37.79,19.78-62.45,45.81-51.19,54-137.42,119-143.39,174.58-4.25,39.66,55.3,80.57,93,53,40.94-30,88.27-78.87,114.12-92.47"/><path class="cls-2" d="M423.68,1166.23c50.21,37.74,106.39,235.21,137.94,278,10.7,27.91-32.53,73.34-62.38,42.33C443,1412.33,306.91,1268.34,314.7,1179.88"/><path class="cls-6" d="M381.81,1072.91c-33.26,26.25-76.2,75-79.16,115.27-5.57,75.57,80.71,174.79,98.63,198.29,3.6-35.55,85.18-80,105.94-82.24-13.31-24.72-31.64-79-44.62-96.58,19.47-10.43,27.82-23.65,27.82-23.65"/><path class="cls-8" d="M519.15,940.25c-40.33,17.6-104.53,97.71-122.62,110.23s-23.64,16-21.56,30.6,79.29,109.18,107.1,116.14c20.87,0,36.17-41,68.85-47.29"/><path class="cls-9" d="M462.74,1159.85c12.14,17.22,26.55,25.23,26.55,25.23-9.61,6.41-36.54-9.19-71-48.37"/><path class="cls-9" d="M520.84,946.83c-27.36,14-119.64,107.5-138.66,119.48-7.21,26.59,50.52,101.42,90.16,102.26,26.52-10.35,55.63-61.07,63.28-133.39S520.84,946.83,520.84,946.83Z"/><path class="cls-10" d="M524.37,947.88c-51.69,23.93-109,99.05-125.58,108.74,6.78,31,46.72,82,59.67,82C498.3,1115.39,541.88,1016.91,524.37,947.88Z"/><path class="cls-10" d="M384.76,1064.52c-9.07,8.63,27.61,76.12,64.46,89.34C417.64,1116.2,394.89,1054.89,384.76,1064.52Z"/><path class="cls-7" d="M374.56,1091.9c-25.73,21.66-55.85,56.19-60.09,87.93-4,30.09,48.6,127.27,100.15,169.69,34.27-34.42,77.19-48,77.19-48-7.78-26.18-27.46-77.35-42.59-89.1s-70.07-26-70.07-26c22.25-5.26,64.67,10.74,64.67,10.74l7-4.17C426.9,1176.59,386.7,1112.34,374.56,1091.9Z"/><path class="cls-2" d="M510.85,1498.62a587.09,587.09,0,0,1,98.94,11.24c7.47,1.51,14.92,3.26,22.24,5.42,3-4.22,4.12-8,2.5-10.9-17.46-31.53-77.77-67.57-80.16-71.79l-55.51,51.85s1,5.71,2.63,14C504.61,1498.47,507.74,1498.53,510.85,1498.62Z"/><path class="cls-2" d="M640,1516a76.29,76.29,0,0,0-6-12.61l-8,10.21c3.71,1,7.4,2,11.05,3.23C638,1516.51,639,1516.23,640,1516Z"/><path class="cls-11" d="M498.86,1314.79C520.78,1356,547,1426.37,550.92,1435s-20.89,31.26-34.59,26.41-80.45-99.71-80.45-99.71C458.88,1329.23,493.45,1314.84,498.86,1314.79Z"/><path class="cls-11" d="M609.79,1509.86a246.12,246.12,0,0,1,26.57,6.75c-3.08-7.6-6.05-13.63-8.58-16.88-11.81-15.24-70.64-61.75-78.54-63.14l-31.44,25.48c-5.6,10.54-5.25,23.42-3,36.69A585.6,585.6,0,0,1,609.79,1509.86Z"/><path class="cls-8" d="M503.54,259.57c-18.92-20.68-60.68-.37-49.37,27S515.69,274.35,503.54,259.57Z"/><path class="cls-9" d="M474.89,252.22c11.39-3.6,24.61,6.3,5.3,15.39S452.81,259.18,474.89,252.22Z"/><path class="cls-6" d="M383.93,601.25S278.3,760,319.72,828.26c23.72,39.11,66.76-33.9,260.06-31.18C726.32,612.69,535,478.63,535,478.63"/><path class="cls-7" d="M374.09,629.79c-55.58,70.1-71.47,162.14-52.31,191.05C316.89,791.53,350.56,663,374.09,629.79Z"/><path class="cls-13" d="M397,634.37c-51.45,63.75-73,162.19-60.68,187.27s112.14-41.1,220.7-27.71-88.65-159.4-96.32-158.77"/><path class="cls-14" d="M394.22,634.65c-88.9,139.24-9.58,180.26,120.85,138.5s-35.48-107.33-35.48-107.33"/><path class="cls-11" d="M839.55,535.07c11-2.25,29.16-40.41,58.35-24.16,17.92,10,15.54,84-28.41,96.87-18.34,5.39-32.09-20-32.23-20.78"/><path class="cls-2" d="M859.34,567.86c-1.28-28.36,23.09-42.36,34-46.67-13.47,19.64-16.24,67.73-13,75.93"/><path class="cls-2" d="M795.43,386.36c71.2,64.22,81.48,173,89,197.1,39.75,126.69-53.1,223.35-131.2,238.74C612,850,436.61,761.29,409.83,629,350.84,337.29,676.59,264.92,795.43,386.36Z"/><path class="cls-2" d="M472.67,681.87c-17.94-7.79-80-38.18-99.46-2.69-14.92,27.19,41.43,90.51,87.63,84.94,23.76-2.87,27.75-36.26,27.56-37.1"/><path class="cls-11" d="M504.1,584.33c-2.61,87.2,85.45,270.17,269.58,219.41,76.68-21.14,146.15-138.25,99.6-237.67-8-17.06-2.58-45.86-36.47-99.44-15.54-.88-38.86-13.49-38.86-13.49,15.34,47.67,3.23,51.66-8.2,55.46s-63.49-27.9-80-52.58c-5.48,49.5-39.24,65.35-56.47,66.17s-27.67-24.07-30.86-50.37C568.62,488.33,504.92,557.14,504.1,584.33Z"/><path class="cls-15" d="M780.38,591.48c-11.25-11.25-16.48-95.65,32.29-103.77,45.42-7.56,61.55,52.57,57.81,73.51C863.27,601.64,802.38,613.5,780.38,591.48Z"/><path class="cls-16" d="M780.92,593c-10.56-10.57-15.2-88.66,30.48-97.18,40-7.45,57.1,49.65,53.36,69.29C857.39,604,801.6,613.73,780.92,593Z"/><path class="cls-17" d="M780.92,593c-10-10-18.13-85.17,20.59-91.47,43.37-7.05,64.89,50.66,58.49,71.75C851.16,602.46,800.47,612.6,780.92,593Z"/><path class="cls-18" d="M795.85,509.77c44.28-17.45,69.94,62.42,50.56,81.85-14.3,10.87-44.3,17.45-57.24,6C775.85,585.89,765.29,521.82,795.85,509.77Z"/><path class="cls-15" d="M777.08,417.67c-9.1,1.57-24.15,33.08-16.18,29.86,38.75-15.67,54.43-3.55,55.57-8.21C818.83,429.72,788.58,415.67,777.08,417.67Z"/><path class="cls-15" d="M558.57,473.34c10.32-5.45,38.84,2.43,40.46,9s-37.13,3.13-78.21,48.56C516.85,512.32,547.85,479,558.57,473.34Z"/><path class="cls-19" d="M799.51,526.45c43.41-12.21,64.28,68.18,22,74.06S771.42,534.35,799.51,526.45Z"/><path class="cls-17" d="M854.61,542.1c-8.3-8.09-28,10.23-23.32,18.55S867.22,554.35,854.61,542.1Z"/><path class="cls-15" d="M671.78,622.59c6.74-15.88-25.37-99.33-88.07-86.31-55.79,11.59-52.14,92.06-34.05,108.13C582.47,673.55,658.61,653.64,671.78,622.59Z"/><path class="cls-16" d="M672.32,622.27c6.09-14.37-22.73-89.19-79.51-77.6s-47.4,82.8-31,97.35C591.48,668.39,660.38,650.38,672.32,622.27Z"/><path class="cls-17" d="M662.52,627.15c9.39-17.13-17.79-87.23-70.23-76.53s-39.82,77-24.69,90.48C595,665.45,649,651.88,662.52,627.15Z"/><path class="cls-18" d="M589,558.92c41.22-11.74,80.84,63,56.29,85.89-23.12,13.52-63,14-72.77,4.58S544.32,571.65,589,558.92Z"/><path class="cls-19" d="M587.9,579.14c33.7-15.36,73.38,63.29,28.37,76.71S553.17,595,587.9,579.14Z"/><path class="cls-17" d="M652.53,597.67c-8.83-8.59-29.75,10.89-24.81,19.74S665.93,610.71,652.53,597.67Z"/><path class="cls-17" d="M588.44,622.82c8.46-4.45,12.55,11.53,5.93,15.06S580,627.27,588.44,622.82Z"/><path class="cls-17" d="M799.16,569.25c8.45-4.45,12.55,11.54,5.93,15.06S790.69,573.7,799.16,569.25Z"/><path class="cls-20" d="M497.37,504.16c-45.25,49.37-20.89,147.11,10.84,200.06-15.12,9.12-26,4.4-26,4.4-33.15-46.25-82.26-49.21-82.26-49.21-27.51-19.63-24.09-58.36-13.71-96.84"/><path class="cls-21" d="M482.77,526.47c-21.89,46.08,6.17,129.46,32.07,158.09-28.84-8.89-58.49-46.86-64-66.88,4.42,28.5,16.47,43.37,16.47,43.37C440.83,651.85,417.7,625,417.7,625,438.06,565.44,482.77,526.47,482.77,526.47Z"/><path class="cls-20" d="M758.15,404.21c77.52-19.17,144,36.89,134.43,56.22S762,413.9,719.9,400.58c99.55,26.95,79.55,77.66,67.26,85.62s-98.89-79.38-98.89-79.38-6,90.28-35,99.77S623,443.43,631.11,423.11c-83,26.71-127.65-84.57-24.33-119.39s229.78,29.5,167,77.38"/><path class="cls-21" d="M581.49,367.72c27.49,3,53.53,26,53.53,26,6.81-24.65-13.65-48.37-13.65-48.37,29,5.91,44.63,50.09,44.63,50.09,17.86.78,60.88-6.88,60.88-6.88-6.76-47.14-22.34-47.36-30.14-54.21,28.18,3.62,47.34,42.41,60.47,58.29-1.86-55.62-50-109.86-132.25-69.78,27.22,4.46,45.18,22.51,45.18,22.51-28.81-18.05-63.29-20.75-84.95.86"/><path class="cls-21" d="M669.83,427.16c2.73,40.55-13,75.5-28.85,74.59-15.8-14.82-14-52.13.48-72.55"/><path class="cls-20" d="M757.25,424.88c52.38,14.05,67.76,45.27,65,53.75,14.33-20.63,9.21-56.86-61.66-66.69"/><path class="cls-20" d="M682.83,416c32.73,5.82,43.49,63.4,38.38,85.35,17-25,17.46-71.69-32.68-90.68"/><path class="cls-2" d="M642.7,704.39c-11.9,11,4.72,17.33,23,11.9C657.58,712.75,656.37,691.77,642.7,704.39Z"/><path class="cls-2" d="M837.24,675.89c11.49,11.45,1.19,16.17-17.71,13.75C827,684.85,826.78,665.46,837.24,675.89Z"/><path class="cls-22" d="M650.09,708.55c-9.64,7.17,9.92,13.89,56.23,6.86-23.8,2-42.07,1.73-48.74-2.66C652.14,709.17,652.57,706.71,650.09,708.55Z"/><path class="cls-22" d="M805.59,694.26c9.73-1.48,18.86-6.24,21.19-11.51,1.46-3.3,3.28-5.27,5.19-3.11,4.58,5.19-3.17,10.22-25.8,16.07"/><path class="cls-23" d="M771.67,709.84l-89.5,8.28s55.31,15.44,82,10.24,39.52-20,53.67-36.16C807.23,698.1,782.73,706.73,771.67,709.84Z"/><path class="cls-24" d="M769.79,698.51c-10.17,6.11-14.19-1.38-32.16,3.78s-52.34,17.62-75.15,13.25c76.86,7.61,135.66-8.32,158-25.55C801.31,696.57,788.37,687.35,769.79,698.51Z"/><path class="cls-25" d="M760.36,632.89c9.26.63,10.62,4.77,20.65,6.05,13.34,1.69,6.2,11.74-6.81,15.65s-26.75,7.93-40.27,9.42-11.28-9.52-1.6-14.61C739.55,645.61,749.39,632.13,760.36,632.89Z"/><path class="cls-26" d="M770.14,644.81c1.65-3.19,16.71-3.74,15.71-.42C784.13,650.1,766.8,651.29,770.14,644.81Z"/><path class="cls-25" d="M717.54,635.1c-11.4,11.33-8.59,32.23,14,28.88,7.18-.33-1.72-5.86-1.72-5.86C718.2,656.79,716.36,650.41,717.54,635.1Z"/><path class="cls-26" d="M743.13,651.27c-3.48-2.37-18.3,5.37-15.62,8C731.74,663.5,749.15,655.37,743.13,651.27Z"/><path class="cls-3" d="M457.1,705c-34.47-22.33-67.1-20.94-75.35-4.16,20-.75,58,10,61.74,19.47-6.9,15.84,13.25,21.85,21.3,18.68C438.36,727.51,457.1,705,457.1,705Z"/><path class="cls-11" d="M449.63,688.09c-20.05-22.39-51.78-37.27-72.31-14.92-5.92,9.7-2,16.58-2,16.58C380.1,678.84,415.9,675.93,449.63,688.09Z"/><path class="cls-21" d="M823.9,411.46c42.41,1.57,71,34,60.63,47.85-44.37-30.19-83.51-43.65-101.14-44.73,33.38,7.95,43,37.33,36.08,48-3-23.27-37.12-42.28-55.23-47,28.12,24,29.58,48.62,20.69,58.21C770.85,458.1,706,407.89,706,407.89c27.92-2.19,62.08,32.17,62.08,32.17a262.52,262.52,0,0,0-26.18-37.38C762.8,403.85,823.9,411.46,823.9,411.46Z"/><path class="cls-6" d="M383.92,651.66c29.28-117,294.56-271.58,458.26-241.06,4.53-42-125.09-242.77-332.66-156.82S321.33,543.9,383.92,651.66Zm270-334.16C737,295,772.75,369,748.94,372.14c-84.2,11-126.58,37.46-142,41S577.65,338.1,653.87,317.5Z"/><path class="cls-7" d="M493.39,263.58c-105.65,51.47-110.14,181.05-76.22,261.48,28.57-37.33,137-94.48,176-111-24.38-61.14,29.25-98,60.06-106.83s97.67,3.35,113.51,56c22.84-5.48,53.85,2.82,53.85,2.82C765.42,263.06,647.4,188.55,493.39,263.58Z"/><path class="cls-9" d="M613.33,411.08c38.12-25.77,102-55.83,123.39-50.64,10.11,2.46,13.23,39.31,1,42.21-47.33,9.51-106,40.44-106,40.44C624.62,446,620,437.65,620,437.65"/><path class="cls-10" d="M734.28,360.36c9.23,0,14.12,32.76,3.89,35S727,360.39,734.28,360.36Z"/><path class="cls-7" d="M615.32,410.31c34.85-26.16,99.86-51.52,108.56-48.66s15,28.31,6,31.86S662.53,418,623.74,438.68c-49,20.14-143.37,70-200,132.38-7.47-9.45-12.85-25.22-1.41-40.55S508.06,452.64,615.32,410.31Z"/><path class="cls-27" d="M750.26,375.5c28.74-4.67,70-2.62,77.44,1.94s10.42,25,7.38,25.39c-24.79-7.29-77-3-87.1-1.46C762.08,390.4,750.26,375.5,750.26,375.5Z"/><path class="cls-27" d="M514.65,261.86c102.35-56.9,258.82-2,239,61.55-84.84-57.45-198.22,4-172.79,84.74C485.76,450.61,402.72,324.07,514.65,261.86Z"/><path class="cls-27" d="M719.22,364c9.29.5,10.84,17,5.19,23.76s-65.23,20.29-68.5,12S704.33,363.21,719.22,364Z"/><path class="cls-28" d="M444.3,327c25.49,0,46.15,33.95,46.15,75.82,0,1.76,0,3.5-.1,5.23l-22.86-15.27L477,377.92l-57.86-38.65C426.38,331.52,435,327,444.3,327Zm38.33,118.07c-8.29,20.25-22.36,33.57-38.33,33.57-23.78,0-43.35-29.55-45.87-67.51l29,9.46-11.61,18.15Z"/><polygon class="cls-28" points="406.3 344.31 376.41 391.09 443.47 412.96 433.96 427.83 510.38 435.07 453.58 397.13 463.09 382.25 406.3 344.31"/><path class="cls-29" d="M743.07,995.2A82.73,82.73,0,0,1,833,1070c.18,1.91.28,3.81.33,5.7L791,1062.88l15.48-17.72-107.12-32.53A82.36,82.36,0,0,1,743.07,995.2Zm80.17,122a82.73,82.73,0,0,1-153.68-23.1l52.74,5.53-18.91,21.63Z"/></g><g id="Capa_2-2" data-name="Capa 2"><polygon class="cls-29" points="676.95 1020.22 628.25 1075.93 750.13 1088.72 734.65 1106.43 871.77 1101.79 766.62 1069.86 782.1 1052.15 676.95 1020.22"/><circle class="cls-30" cx="774.96" cy="774.96" r="735.46"/><circle class="cls-31" cx="774.96" cy="778" r="669.48"/></g></g></svg>