<?xml version="1.0" encoding="utf-8"?>
<!-- Generator: Adobe Illustrator 24.0.2, SVG Export Plug-In . SVG Version: 6.00 Build 0)  -->
<svg version="1.1" id="Capa_1" xmlns="http://www.w3.org/2000/svg" xmlns:xlink="http://www.w3.org/1999/xlink" x="0px" y="0px"
	 viewBox="0 0 191 170" style="enable-background:new 0 0 191 170;" xml:space="preserve">
<style type="text/css">
	.st0{fill-rule:evenodd;clip-rule:evenodd;fill:#000044;}
	.st1{fill-rule:evenodd;clip-rule:evenodd;fill:#9EC2C2;}
	.st2{fill:#769191;}
	.st3{fill-rule:evenodd;clip-rule:evenodd;}
	.st4{fill-rule:evenodd;clip-rule:evenodd;fill:#1F766B;}
	.st5{fill-rule:evenodd;clip-rule:evenodd;fill:#2A9D8F;}
	.st6{fill-rule:evenodd;clip-rule:evenodd;fill:#FFFFFF;}
	.st7{fill-rule:evenodd;clip-rule:evenodd;fill:#FCCF00;}
	.st8{fill-rule:evenodd;clip-rule:evenodd;fill:#89C6C6;}
	.st9{fill:#FFB38A;}
	.st10{fill:#150A0B;}
	.st11{fill:#0E4B5E;}
	.st12{fill:#281416;}
	.st13{fill:#F7931E;}
	.st14{fill:#FBB03B;}
	.st15{fill:#225E79;}
	.st16{fill:#316D83;}
	.st17{fill:#B15E2B;}
	.st18{fill:#D09271;}
	.st19{fill:#C2EAE8;}
	.st20{fill:#ADCECC;}
	.st21{fill:#790E0E;}
	.st22{fill:#523424;}
</style>
<g>
	<path class="st0" d="M47.19,113.02c14.34,0,25.96,11.62,25.96,25.96c0,14.34-11.62,25.96-25.96,25.96
		c-14.34,0-25.96-11.62-25.96-25.96C21.23,124.64,32.85,113.02,47.19,113.02 M47.19,119.69c-10.65,0-19.29,8.64-19.29,19.29
		c0,10.65,8.64,19.29,19.29,19.29c10.65,0,19.29-8.64,19.29-19.29C66.48,128.32,57.84,119.69,47.19,119.69"/>
	<path class="st1" d="M47.19,119.69c10.65,0,19.29,8.64,19.29,19.29c0,10.65-8.64,19.29-19.29,19.29
		c-10.65,0-19.29-8.64-19.29-19.29C27.9,128.32,36.53,119.69,47.19,119.69 M47.19,126.95c-6.64,0-12.03,5.38-12.03,12.03
		c0,6.64,5.38,12.03,12.03,12.03c6.64,0,12.03-5.38,12.03-12.03C59.21,132.33,53.83,126.95,47.19,126.95"/>
	<path class="st2" d="M47.19,152.62c-7.54,0-13.65-6.11-13.65-13.65c0-7.54,6.11-13.65,13.65-13.65c7.54,0,13.65,6.11,13.65,13.65
		C60.83,146.51,54.72,152.62,47.19,152.62 M47.19,121.31c-9.76,0-17.67,7.91-17.67,17.67c0,9.76,7.91,17.67,17.67,17.67
		c9.76,0,17.67-7.91,17.67-17.67C64.86,129.22,56.95,121.31,47.19,121.31"/>
	<path class="st1" d="M44.83,134.7c0.32-0.17,0.65-0.31,0.99-0.41l0.65-8.41h0.71h0.71l0.65,8.41c0.34,0.1,0.67,0.24,0.99,0.41
		l6.4-5.49l0.51,0.5l0.5,0.51l-5.49,6.4c0.17,0.32,0.31,0.65,0.41,0.99l8.41,0.65v0.71v0.72l-8.41,0.65
		c-0.1,0.34-0.24,0.67-0.41,0.99l5.49,6.4l-0.5,0.51l-0.51,0.5l-6.4-5.49c-0.32,0.17-0.65,0.31-0.99,0.41l-0.65,8.41h-0.71h-0.71
		l-0.65-8.41c-0.34-0.1-0.67-0.24-0.99-0.41l-6.4,5.49l-0.51-0.5l-0.51-0.51l5.49-6.4c-0.17-0.32-0.31-0.65-0.41-0.99l-8.41-0.65
		v-0.72v-0.71l8.41-0.65c0.1-0.34,0.24-0.67,0.41-0.99l-5.49-6.4l0.51-0.51l0.51-0.5L44.83,134.7z"/>
	<path class="st1" d="M159.4,144.84c3.23,0,5.86-2.63,5.86-5.86c0-3.23-2.63-5.86-5.86-5.86c-3.23,0-5.86,2.63-5.86,5.86
		C153.54,142.2,156.18,144.84,159.4,144.84z"/>
	<path class="st1" d="M163.55,134.83c2.29,2.29,2.29,6,0,8.29c-2.29,2.29-6,2.29-8.29,0c-2.29-2.29-2.29-6,0-8.29
		C157.55,132.54,161.26,132.54,163.55,134.83z"/>
	<path class="st1" d="M165.27,138.98c0,3.24-2.62,5.86-5.86,5.86c-3.24,0-5.86-2.62-5.86-5.86c0-3.24,2.62-5.86,5.86-5.86
		C162.64,133.11,165.27,135.74,165.27,138.98z"/>
	<path class="st1" d="M163.55,143.12c-2.29,2.29-6,2.29-8.29,0c-2.29-2.29-2.29-6,0-8.29c2.29-2.29,6-2.29,8.29,0
		C165.84,137.12,165.84,140.83,163.55,143.12z"/>
	<path class="st1" d="M159.4,144.84c-3.24,0-5.86-2.62-5.86-5.86c0-3.24,2.62-5.86,5.86-5.86c3.24,0,5.86,2.62,5.86,5.86
		C165.27,142.21,162.64,144.84,159.4,144.84z"/>
	<path class="st1" d="M155.26,143.12c-2.29-2.29-2.29-6,0-8.29c2.29-2.29,6-2.29,8.29,0s2.29,6,0,8.29
		C161.26,145.41,157.55,145.41,155.26,143.12z"/>
	<path class="st1" d="M153.54,138.98c0-3.24,2.62-5.86,5.86-5.86c3.24,0,5.86,2.62,5.86,5.86c0,3.24-2.62,5.86-5.86,5.86
		C156.17,144.84,153.54,142.21,153.54,138.98z"/>
	<path class="st0" d="M159.4,113.02c14.34,0,25.96,11.62,25.96,25.96c0,14.34-11.62,25.96-25.96,25.96
		c-14.34,0-25.96-11.62-25.96-25.96C133.45,124.64,145.07,113.02,159.4,113.02 M159.4,119.69c-10.65,0-19.29,8.64-19.29,19.29
		c0,10.65,8.64,19.29,19.29,19.29c10.65,0,19.29-8.64,19.29-19.29C178.7,128.32,170.06,119.69,159.4,119.69"/>
	<path class="st1" d="M159.4,119.69c10.65,0,19.29,8.64,19.29,19.29c0,10.65-8.64,19.29-19.29,19.29
		c-10.65,0-19.29-8.64-19.29-19.29C140.11,128.32,148.75,119.69,159.4,119.69 M159.4,126.95c-6.64,0-12.03,5.38-12.03,12.03
		c0,6.64,5.38,12.03,12.03,12.03c6.64,0,12.03-5.38,12.03-12.03C171.43,132.33,166.05,126.95,159.4,126.95"/>
	<path class="st2" d="M159.4,152.62c-7.54,0-13.65-6.11-13.65-13.65c0-7.54,6.11-13.65,13.65-13.65c7.54,0,13.65,6.11,13.65,13.65
		C173.05,146.51,166.94,152.62,159.4,152.62 M159.4,121.31c-9.76,0-17.67,7.91-17.67,17.67c0,9.76,7.91,17.67,17.67,17.67
		c9.76,0,17.67-7.91,17.67-17.67C177.08,129.22,169.16,121.31,159.4,121.31"/>
	<path class="st1" d="M157.05,134.7c0.32-0.17,0.65-0.31,0.99-0.41l0.65-8.41h0.71h0.71l0.65,8.41c0.34,0.1,0.67,0.24,0.99,0.41
		l6.4-5.49l0.5,0.5l0.51,0.51l-5.49,6.4c0.18,0.32,0.31,0.65,0.41,0.99l8.41,0.65v0.71v0.72l-8.41,0.65
		c-0.1,0.34-0.24,0.67-0.41,0.99l5.49,6.4l-0.51,0.51l-0.51,0.5l-6.4-5.49c-0.32,0.17-0.65,0.31-0.99,0.41l-0.65,8.41h-0.71h-0.71
		l-0.65-8.41c-0.34-0.1-0.67-0.24-0.99-0.41l-6.4,5.49l-0.5-0.5l-0.51-0.51l5.49-6.4c-0.18-0.32-0.31-0.65-0.41-0.99l-8.41-0.65
		v-0.72v-0.71l8.41-0.65c0.1-0.34,0.24-0.67,0.41-0.99l-5.49-6.4l0.51-0.51l0.5-0.5L157.05,134.7z"/>
	<path class="st3" d="M137.24,106.18l4.71-2.72l19.62,34.43c0.74,1.3,0.06,2.65-0.99,3.71c-1.06,1.06-2.97,0.3-3.71-0.99
		L137.24,106.18z"/>
	<path class="st4" d="M159.4,105.78c3.02,0,5.95,0.41,8.74,1.16c0.84,0.23,1.45,0.84,1.67,1.68c0.22,0.84,0,1.68-0.62,2.29
		l-37.85,37.85c-0.62,0.62-1.45,0.84-2.29,0.62c-0.84-0.22-1.45-0.83-1.68-1.67c-0.76-2.78-1.16-5.71-1.16-8.74
		C126.21,120.65,141.07,105.78,159.4,105.78z"/>
	<path class="st4" d="M46.19,99.3l51.5-0.75c-9.72,19.09-10.15,32.9,0,44.41H74.1l-1.67-1.65H15.6c-1.44,0-2.68-0.56-3.63-1.65
		c-0.95-1.08-1.34-2.39-1.15-3.81c2.59-19.39,14.44-33.79,33.28-34.79C46.35,100.95,46.62,99.81,46.19,99.3z"/>
	<path class="st5" d="M89.87,140.37h2.6c-7.92-12.33-5.05-26,1.04-39.17l-2.04,0.03c-1.79,0.03-3.3,1.07-3.96,2.73
		c-4.5,11.38-6.31,22.96-1.61,33.8C86.61,139.38,88.11,140.37,89.87,140.37z"/>
	<path class="st5" d="M73.6,141.82h22.96c7.3,0,17.12,1.05,21.71-6.57l20.15-33.46c2.56-4.26,2.59-7.5,1.2-13.29l-4.6-19.2
		c-0.41-1.71-0.6-3.05,1.04-3.05h2.11c2.02,0,3.72,1.34,4.2,3.3l4.08,16.77c0.82,3.39,3.62,14.6,1.83,17.6l-24.65,41.36h-1.52h-9.49
		H73.13C73.35,144.14,73.5,142.99,73.6,141.82z"/>
	<path class="st4" d="M123.08,144.99H72.72c-0.33,0-0.61,0.27-0.61,0.61v2.25c0,0.34,0.27,0.61,0.61,0.61h50.36
		c0.33,0,0.61-0.27,0.61-0.61v-2.25C123.69,145.27,123.42,144.99,123.08,144.99z"/>
	<path class="st5" d="M47.12,104.69c18.57,0,33.91,13.82,36.3,31.73c0.17,1.28-0.18,2.45-1.03,3.42c-0.85,0.97-1.96,1.48-3.25,1.48
		H15.1c-1.29,0-2.4-0.5-3.25-1.48c-0.85-0.97-1.2-2.14-1.03-3.42C13.21,118.5,28.55,104.69,47.12,104.69z"/>
	<path class="st4" d="M47.12,108.23c15.76,0,28.79,11.73,30.82,26.94c0.15,1.09-0.15,2.08-0.88,2.9c-0.09,0.11-0.19,0.21-0.29,0.3
		c-3.98-12.58-15.75-21.71-29.65-21.71c-13.9,0-25.67,9.12-29.65,21.71c-0.1-0.09-0.2-0.19-0.29-0.3c-0.72-0.83-1.02-1.82-0.88-2.9
		C18.33,119.96,31.35,108.23,47.12,108.23z"/>
	<path class="st3" d="M45.28,89.79H97.9c0.63,0,1.14,0.51,1.14,1.14v7.22c0,0.63-0.51,1.14-1.14,1.14H45.28
		c-0.63,0-1.14-0.51-1.14-1.14v-7.22C44.14,90.31,44.65,89.79,45.28,89.79z"/>
	<path class="st5" d="M7.25,32.2h60.62c1.18,0,2.14,0.96,2.14,2.14v53.19c0,1.18-0.96,2.14-2.14,2.14H7.25
		c-1.18,0-2.14-0.96-2.14-2.14V34.34C5.11,33.16,6.07,32.2,7.25,32.2z"/>
	<path class="st4" d="M10.72,35.49H64.4c1.04,0,1.9,0.85,1.9,1.9v19.54C47.14,64.7,22.26,46.59,8.82,72.09v-34.7
		C8.82,36.34,9.68,35.49,10.72,35.49z"/>
	<path class="st6" d="M37.56,45.35c8.61,0,15.58,6.98,15.58,15.58c0,0.36-0.01,0.72-0.04,1.08l-7.72-3.14l3.21-3.06l-19.54-7.94
		C31.51,46.28,34.43,45.35,37.56,45.35z M50.5,69.62c-2.8,4.16-7.55,6.9-12.94,6.9c-8.03,0-14.64-6.07-15.49-13.88l9.8,1.94
		l-3.92,3.73L50.5,69.62z"/>
	<polygon class="st6" points="24.73,48.91 14.64,58.52 37.28,63.02 34.07,66.07 59.87,67.56 40.7,59.76 43.91,56.7 	"/>
	<path class="st7" d="M150.13,73.44c1.31-0.11,2.61,2.6,2.9,6.06c0.29,3.46-0.53,6.35-1.84,6.46c-1.31,0.11-2.61-2.6-2.9-6.06
		C147.99,76.44,148.81,73.55,150.13,73.44z"/>
	<path class="st4" d="M149.6,72.61l0.03,0c0.47-0.05,0.9,0.29,0.95,0.76L152,85.79c0.05,0.47-0.29,0.9-0.76,0.96l-0.03,0
		c-4.41,0.5-8.35-2.25-8.8-6.15C141.97,76.69,145.18,73.12,149.6,72.61z"/>
	<path class="st8" d="M148.2,72.88l1.81,13.92c0.39,0.01,0.79-0.01,1.19-0.06l0.03,0c0.47-0.06,0.81-0.49,0.76-0.96l-1.42-12.42
		c-0.05-0.47-0.48-0.81-0.95-0.76l-0.03,0C149.12,72.67,148.65,72.76,148.2,72.88z"/>
	<path class="st3" d="M137.28,67.76l-9.56-2.45c-0.5-0.13-1,0.17-1.13,0.67l-0.25,0.97c-0.13,0.49,0.17,1,0.67,1.13l9.56,2.45
		c0.49,0.13,1-0.17,1.13-0.67l0.25-0.97C138.08,68.4,137.78,67.89,137.28,67.76z"/>
	<line class="st9" x1="138.78" y1="66.15" x2="138.72" y2="66.21"/>
	<g>
		<path class="st10" d="M98.05,134.88c-0.41,0.89-0.85,1.77-1.05,2.73c-0.2,0.96-0.14,2.01,0.41,2.82c1.04,1.54,3.25,1.58,5.1,1.46
			c0.91-0.06,1.82-0.12,2.73-0.18c1.17-0.08,2.52-0.26,3.1-1.28c0.52-0.9,0.16-2.03-0.14-3.03c-0.68-2.25-1.01-4.61-0.98-6.96
			c0.01-0.7,0.05-1.42-0.22-2.07c-0.36-0.91-1.26-1.51-2.21-1.76c-2.13-0.58-3.74-0.53-4.32,1.52
			C99.83,130.44,99.06,132.69,98.05,134.88z"/>
		<path class="st11" d="M105.3,103.24c0.47,0.52,0.96,1.07,1.13,1.75c0.16,0.63,0.02,1.3-0.16,1.92c-0.81,2.75-2.61,5.23-2.77,8.09
			c-0.05,0.86,0.06,1.73-0.11,2.58c-0.18,0.95-0.68,1.8-1.18,2.64c-0.65,1.09-1.3,2.18-1.95,3.28c-0.4,0.68-0.82,1.41-0.77,2.2
			c0.09,1.48,1.71,2.33,3.12,2.8c0.82,0.27,1.84,0.47,2.44-0.14c0.25-0.25,0.37-0.6,0.48-0.93c2.45-7.26,4.9-14.53,7.34-21.79
			c0.61-1.82,1.22-3.81,0.55-5.61c-0.74-1.97-2.8-3.08-4.7-4c-1.76-0.86-3.52-1.73-5.28-2.59c-1.54-0.76-3.63-1.42-4.76-0.13
			c-1.58,1.8-0.05,3.28,1.23,4.24C101.91,99.03,103.62,101.4,105.3,103.24z"/>
		<path class="st12" d="M101.68,135.54c-0.61,1.54-1.24,3.16-1.06,4.81c0.04,0.36,0.13,0.74,0.39,0.99c0.22,0.22,0.53,0.3,0.83,0.38
			c5.14,1.37,10.59,1.58,15.82,0.61c0.76-0.14,1.54-0.32,2.15-0.79c0.61-0.47,0.98-1.33,0.68-2.04c-0.38-0.87-1.49-1.07-2.44-1.18
			c-1.69-0.19-3.41-0.46-4.89-1.29c-1.48-0.83-2.68-2.35-2.7-4.04c-0.01-1.29,0.56-2.85-0.42-3.69c-0.46-0.4-1.12-0.46-1.74-0.5
			c-2.03-0.13-3.1-0.57-4.33,0.92C102.88,131.02,102.3,133.93,101.68,135.54z"/>
		<path class="st13" d="M75.78,50.59c-4.37,8.22-6.58,17.38-8.75,26.43c-0.19,0.8-0.38,1.64-0.16,2.43c0.22,0.79,1,1.49,1.81,1.32
			c0.01,0.78,0.02,1.56,0.04,2.34c1.09,1.58,3.04,2.39,4.95,2.55c1.91,0.16,3.82-0.24,5.7-0.63c4.06-0.86,8.12-1.72,12.19-2.58
			c0.82-0.17,1.7-0.39,2.22-1.04c0.52-0.66,0.33-1.88-0.5-2.02c2.88-0.52,4.09-3.91,4.76-6.76c0.67-2.86,1.35-5.72,2.02-8.58
			c1.07-4.54,2.15-9.13,2.21-13.8c0.05-3.45-0.29-7.4,2.16-9.83c0.77-0.76,1.79-1.35,2.17-2.36c0.58-1.55-0.63-3.14-1.75-4.36
			c-1.46-1.58-2.92-3.16-4.38-4.75c-0.24-0.26-0.51-0.53-0.85-0.55c-0.41-0.03-0.74,0.3-1.02,0.6c-2.13,2.31-3.49,3.22-6.26,4.57
			c-2.45,1.2-4.72,2.75-6.79,4.53C81.79,41.33,77.65,45.92,75.78,50.59z"/>
		<path class="st13" d="M83.58,56.74c-0.59,5.15,0.67,10.79,4.49,14.3c2.57,2.36,6.04,3.53,9.51,3.91
			c3.47,0.38,6.96,0.03,10.43-0.33c0.22-0.4,0.43-0.79,0.65-1.19c0.83,0.29,1.66,0.58,2.49,0.87c0.3-0.36,0.6-0.72,0.9-1.08
			c0.29,0.88,1.34,1.43,2.23,1.18c0.28-2.39,0.98-4.73,2.07-6.88c-6.3-1.24-12.69-2.52-18.44-5.37c-0.91-0.45-1.93-0.96-2.91-0.67
			c0.76-4.19,0.97-8.49,0.61-12.73c-0.17-2.02-0.51-4.14-1.81-5.7C87.69,35.75,83.96,53.38,83.58,56.74z"/>
		<path class="st14" d="M95.94,46.12c-0.16-0.98-0.35-1.98-0.78-2.87c-0.45-0.93-1.43-1.82-2.42-1.49c-1.2,0.4-1.23,2.06-1.02,3.3
			c0.59,3.63,1.19,7.26,1.78,10.89c0.42,2.58,0.84,5.28,0,7.76c0.55-0.06,1.11-0.11,1.67-0.17c0.04,0.61,0.07,1.23,0.11,1.84
			c4.29,1.25,8.71,2.07,13.16,2.44c-0.09-1.64-2.12-2.29-3.72-2.67c-1.92-0.44-3.9-1.04-5.67-1.93c-2.19-1.11-1.91-1.51-1.94-4.01
			C97.05,54.83,96.66,50.45,95.94,46.12z"/>
		<path class="st14" d="M102.48,40.08c0.95-0.69,1.82-1.49,2.59-2.38c-0.77-0.96-1.54-1.93-2.32-2.89c-0.12-0.15-0.24-0.3-0.41-0.38
			c-0.32-0.15-0.71-0.01-0.97,0.22c-0.71,0.61-0.79,1.72-0.45,2.58c0.34,0.87,1.02,1.55,1.68,2.21"/>
		<path class="st14" d="M93.51,78.84c-0.79,0.7-1.96,0.69-3.02,0.64c-0.51-0.03-1.05-0.06-1.49-0.33c-0.44-0.27-0.71-0.88-0.46-1.32
			c0.25-0.42,0.81-0.51,1.3-0.53c0.7-0.04,1.42-0.05,2.08-0.29c0.66-0.24,1.27-0.75,1.41-1.44c0.55-0.31,1.3,0.1,1.5,0.69
			c0.2,0.6-0.05,1.27-0.47,1.74c-0.42,0.47-0.99,0.77-1.54,1.07"/>
		<path class="st15" d="M73.9,91.01c2.72,1.56,5.93,1.95,9.04,2.31c3.47,0.4,6.94,0.81,10.41,1.21c4.8,0.56,10.14,1.41,13.08,5.25
			c0.3,0.4,0.62,0.85,1.1,0.97c0.53,0.13,1.05-0.19,1.58-0.34c0.52-0.15,1.27,0.01,1.32,0.55c-0.57,0.51-0.88,1.29-0.83,2.06
			c0.4-0.07,0.79-0.14,1.19-0.2c0.23,0.95-0.39,1.88-0.92,2.7c-1.65,2.58-2.66,5.55-2.93,8.6c-0.19,2.16-0.05,4.48-1.18,6.34
			c-0.51,0.84-1.25,1.52-1.78,2.36c-0.48,0.76-0.77,1.64-0.83,2.54c-0.22,2.99,2.54,5.91,5.52,5.67c3.06-0.25,5.12-3.17,6.6-5.86
			c4.52-8.23,7.82-17.22,8.9-26.54c0.18-1.55,0.29-3.15-0.18-4.63c-1.06-3.36-4.67-5.11-7.94-6.4c-5.55-2.2-11.19-4.17-16.89-5.92
			c-1.55-0.48-3.13-0.94-4.75-1.04c-1.44-0.09-2.89,0.09-4.32,0.28c-5.51,0.72-11.03,1.45-16.54,2.17
			c-2.56,0.34-4.62-0.08-3.71,3.06C70.41,88.19,72.06,89.95,73.9,91.01z"/>
		<path class="st16" d="M111.07,90.49c1.64,0.63,3.33,1.3,4.62,2.5c3.08,2.9,2.81,7.89,1.5,11.91c-1.32,4.02-3.47,7.91-3.44,12.14
			c0.63,0.56,1.52-0.28,1.91-1.02c2.86-5.43,4.71-11.39,5.44-17.49c0.19-1.61,0.28-3.35-0.58-4.72c-0.74-1.18-2.05-1.87-3.3-2.48
			c-6.39-3.12-14.49-7.5-21.62-8.27C95.41,86.23,108.4,89.46,111.07,90.49z"/>
		<path class="st9" d="M119.87,73.52c0.63,0.02,1.28,0.04,1.9-0.11c2.36-0.56,3.69-3.26,6.01-3.94c0.14-0.04,0.29-0.08,0.44-0.05
			c0.21,0.04,0.37,0.2,0.52,0.36c0.38,0.42,0.71,0.89,1.16,1.23c0.45,0.34,1.09,0.51,1.59,0.25c0.5-0.26,0.68-1.06,0.22-1.4
			c0.21,0.5,0.88,0.75,1.37,0.51c0.49-0.24,0.7-0.91,0.44-1.39c0.23,0.38,0.72,0.59,1.16,0.49c0.44-0.1,0.79-0.5,0.83-0.95
			c0.06-0.66-0.46-1.2-0.9-1.7c-0.64-0.72-1.18-1.53-1.85-2.23c-0.67-0.69-1.52-1.28-2.48-1.39c-0.76-0.08-1.52,0.14-2.25,0.39
			c-1.63,0.56-3.21,1.27-4.71,2.11c-1.2,0.67-2.35,1.42-3.61,1.95c-1.26,0.53-2.67,0.83-4.01,0.54c-0.83-0.18-2.02,4.28-1.65,4.91
			c0.32,0.54,1.84,0.31,2.46,0.32C117.63,73.45,118.75,73.49,119.87,73.52z"/>
		<path class="st9" d="M124.72,21.72c0.6,0.98,1.98,1.32,2.45,2.36c-1.66,0.64-3.02,2.04-3.61,3.72c-0.7,2-0.42,4.45-1.86,6.01
			c-1.29,1.4-3.49,1.48-5.34,1.03c-1.85-0.45-3.6-1.34-5.49-1.53c-2.36-0.25-4.81,0.66-6.44,2.38c-0.38,0.4-0.83,0.89-1.38,0.79
			c-0.38-0.07-0.64-0.4-0.87-0.7c-0.91-1.22-1.82-2.45-2.73-3.67c1.3-1.42,2.03-3.35,2-5.27c-0.03-1.5-0.49-2.95-0.59-4.45
			c-0.38-5.45,4.34-10.29,9.64-11.57c4.14-1.01,11.09-0.59,14.68,2.04C128.77,15.48,122.84,18.69,124.72,21.72z"/>
		<path class="st17" d="M121.23,15.89c0.25,0.65-0.66,1.14-1.36,1.14c-1.36,0-2.67-0.53-4.02-0.65c-1.36-0.11-2.96,0.38-3.4,1.66
			c-0.3,0.86,0,1.8,0.12,2.7c0.11,0.9-0.1,2.02-0.95,2.35c-0.75-0.96-0.49-2.5-1.4-3.31c-0.77-0.68-1.98-0.45-2.92-0.03
			c-0.79,0.35-1.56,0.84-1.95,1.61c-0.91,1.8,0.75,4.04,0.08,5.94c-0.22,0.64-0.68,1.16-1.14,1.65c-0.57,0.6-1.17,1.2-1.94,1.52
			c-0.76,0.32-1.73,0.29-2.33-0.28c-1.02-0.96-0.46-2.64-0.72-4.02c-0.27-1.45-1.51-2.58-1.78-4.04c-0.15-0.8,0.02-1.63,0.2-2.42
			c0.46-2.04,1.03-4.09,2.12-5.88c1.79-2.93,4.88-4.92,8.19-5.83c3.31-0.91,6.83-0.82,10.21-0.24c1.48,0.25,2.96,0.6,4.25,1.37
			c1.51,0.9,2.89,2.41,4.64,2.25c-0.47,0.43-1.03,0.75-1.64,0.93c0.81,0.38,1.55,0.92,2.15,1.58c-0.23,0.39-0.68,0.6-1.12,0.63
			c0.47,0.79,0.16,2.08-0.89,2.2c-0.74,0.08-1.57-0.73-2.33-0.84c0.19,0.1,0.39,0.35,0.58,0.47
			C123.39,16.5,121.49,16.56,121.23,15.89z"/>
		<path class="st18" d="M109.23,24.28c0.01,0.09-0.12,0.14-0.2,0.09c-0.08-0.05-0.11-0.15-0.13-0.23c-0.09-0.34-0.17-0.7-0.05-1.02
			c0.12-0.33,0.53-0.57,0.83-0.38c0.24-0.57,0.06-1.28-0.41-1.67c-0.48-0.39-1.21-0.42-1.72-0.06c-0.41,0.28-0.64,0.75-0.81,1.21
			c-0.14,0.38-0.26,0.79-0.17,1.18c0.07,0.33,0.27,0.61,0.47,0.89c0.23,0.32,0.46,0.63,0.68,0.95c0.22,0.31,0.5,0.64,0.87,0.65
			c0.38,0.01,0.69-0.34,0.76-0.71c0.07-0.37-0.04-0.75-0.17-1.11"/>
		<path class="st19" d="M123.56,22.95c0.61-0.28,1.27-0.6,1.93-0.49c1,0.17,1.61,1.3,1.56,2.31c-0.05,1.02-0.59,1.94-1.11,2.82
			c-0.89,1.49-1.78,2.99-2.69,4.47c-0.61,1-1.27,2.02-2.27,2.63c-1.24,0.76-2.84,0.73-4.22,0.28c-1.38-0.46-2.6-1.3-3.8-2.13
			c0.05-0.78,0.83-1.27,1.36-1.84c1.04-1.1,1.25-2.76,1.1-4.27c-0.24-2.36,1.13-1.79,3.02-2.15
			C120.21,24.25,121.93,23.7,123.56,22.95z"/>
		<path class="st19" d="M110.95,22.05c1.77,1.3,3.61,2.48,5.53,3.54c0.3,0.17,0.58-0.3,0.27-0.47c-1.92-1.06-3.76-2.24-5.53-3.54
			C110.94,21.37,110.67,21.84,110.95,22.05z"/>
		<path class="st19" d="M105.23,26.91c2.93,1.97,5.8,4.02,8.62,6.14c0.28,0.21,0.55-0.26,0.27-0.47c-2.82-2.12-5.69-4.17-8.62-6.14
			C105.21,26.25,104.94,26.72,105.23,26.91z"/>
		<path class="st20" d="M116.94,28.24c0.04-0.54,0.02-1.12,0.33-1.56c0.36-0.5,1.02-0.66,1.61-0.82c1.07-0.29,2.09-0.72,3.05-1.27
			c0.17-0.1,0.35-0.2,0.54-0.21c0.45-0.02,0.76,0.49,0.73,0.94c-0.03,0.45-0.28,0.85-0.47,1.25l-0.05,0.24
			c0.03,0.09,0.11,0.15,0.19,0.21c0.35,0.3,0.34,0.89,0.05,1.26c-0.28,0.37-0.76,0.54-1.22,0.57c-0.3,0.02-0.67,0.03-0.82,0.3
			c-0.07,0.13-0.07,0.28-0.07,0.42c-0.04,1.39-1.11,2.69-2.48,2.99c0.1,0.29,0.14,0.59,0.13,0.89c-0.01,0.11-0.02,0.24-0.11,0.31
			c-0.14,0.12-0.36,0.04-0.52-0.05c-1.01-0.55-2.46-0.84-2.11-2.14C116.04,30.41,116.94,29.58,116.94,28.24z"/>
		<path class="st13" d="M107.35,26.06c0.46-0.04,0.93-0.08,1.33-0.33c0.38-0.24,0.65-0.64,0.87-1.05c1.08-2.01,1.33-4.58,2.86-6.19
			c1.87-1.97,4.81-1.71,7.4-1.71c2.07,0,4.13-0.25,6.15-0.75c0.37-0.09,0.75-0.2,1.06-0.44c0.55-0.44,0.76-1.24,0.78-1.98
			c0.09-2.79-1.88-5.15-3.97-6.72c-3.67-2.75-8.17-4.14-12.61-3.89c-4.44,0.25-8.78,2.15-12.18,5.3c-1.8,1.67-3.38,3.8-3.88,6.34
			c-0.31,1.57-0.18,3.2,0.02,4.79c0.18,1.4,0.43,2.82,1.04,4.07C98.34,27.77,103.72,26.33,107.35,26.06z"/>
		<path class="st14" d="M104.25,5.08c-2.77,0.96-5.42,2.54-7.14,4.92c-1.72,2.38-2.39,5.63-1.22,8.33c0.35,0.8,0.89,1.58,1.71,1.9
			c1.09,0.42,2.35-0.11,3.18-0.94c1.65-1.65,2.53-3.93,4.21-5.61c1.37-1.38,3.09-2.01,4.53-3.22c1.24-1.04,1.72-2.81,0.86-4.31
			C109.1,3.97,106.22,4.4,104.25,5.08z"/>
		<path class="st21" d="M108.6,33.07l0.03,0.25l-0.17,0.15c-0.32,0.16-0.65,0.29-1,0.39c-0.81-2.39-1.36-4.88-1.62-7.39
			c-0.03-0.27-0.05-0.54,0.05-0.79c0.17-0.43,1.21-1.03,1.6-0.64c0.24,0.23-0.04,2.3-0.01,2.7
			C107.58,29.55,107.95,31.35,108.6,33.07z"/>
		<path class="st22" d="M119.4,19.45c1.08-0.53,1.98-0.68,3.17-0.66c0.53,0.01,1.09-0.15,1.1-0.77l-0.04-0.06
			c-0.36-0.05-0.7,0.06-1.06,0.06c-0.46,0-0.87-0.03-1.33,0.05c-0.74,0.14-1.65,0.48-2.07,1.15
			C119.08,19.37,119.26,19.52,119.4,19.45z"/>
		<path class="st22" d="M119.68,21.06c0.7-0.42,1.44-0.41,2.21-0.53c0.39-0.06,0.86-0.12,1.06-0.49c0.04-0.08-0.03-0.18-0.12-0.16
			c-0.26,0.07-0.47,0.22-0.73,0.3c-0.28,0.09-0.58,0.12-0.86,0.19c-0.55,0.13-1.1,0.35-1.57,0.67L119.68,21.06z"/>
		<path class="st22" d="M121.5,20.44c-0.06,0.24-0.21,0.84,0.17,0.91c0.42,0.07,0.43-0.57,0.38-0.83l-0.15-0.15l-0.04-0.01
			l-0.17,0.07l-0.05,0.21l0.04,0.15l0,0.2l0.05-0.1l-0.01-0.12c-0.02-0.11-0.04-0.21-0.06-0.32H121.5z"/>
		<path class="st22" d="M120.62,21.35c0.29,0.16,0.6,0.23,0.93,0.21c0.25-0.02,0.61-0.07,0.73-0.32l-0.05-0.08
			c-0.21,0-0.4,0.14-0.61,0.18c-0.32,0.06-0.63,0.01-0.92-0.12C120.61,21.18,120.54,21.31,120.62,21.35z"/>
		<path class="st22" d="M121.29,21.94c0.15,0,0.29,0,0.42-0.08l-0.04-0.13c-0.13,0-0.25,0.03-0.38,0.03
			C121.17,21.76,121.17,21.94,121.29,21.94z"/>
	</g>
</g>
</svg>
